<?xml version="1.0" encoding="utf-8"?>
<!-- Generator: Adobe Illustrator 22.1.0, SVG Export Plug-In . SVG Version: 6.00 Build 0)  -->
<svg version="1.1" id="Layer_1" xmlns="http://www.w3.org/2000/svg" xmlns:xlink="http://www.w3.org/1999/xlink" x="0px" y="0px"
	 viewBox="0 0 12 6.5" style="enable-background:new 0 0 12 6.5;" xml:space="preserve">
<style type="text/css">
	.st0{fill:#FFFFFF;}
</style>
<title>down</title>
<path class="st0" d="M0.9,0.2C0.7,0,0.4-0.1,0.2,0.1c0,0,0,0,0,0C0,0.3-0.1,0.6,0.1,0.8c0,0,0,0,0,0l5.5,5.5c0.2,0.2,0.5,0.2,0.7,0
	c0,0,0,0,0,0l0,0l5.5-5.5c0.2-0.2,0.2-0.5,0-0.7c0,0,0,0,0,0c-0.2-0.2-0.5-0.2-0.7,0c0,0,0,0,0,0L6.1,5.3L0.9,0.2z"/>
</svg>
